Coordinates
version=1
nRows=16
nColumns=42
inDegrees=yes

Units are S.I. units (second, meters, Newtons, ...)
If the header above contains a line with 'inDegrees', this indicates whether rotational values are in degrees (yes) or radians (no).

endheader
time	pelvis_tilt	pelvis_list	pelvis_rotation	pelvis_tx	pelvis_ty	pelvis_tz	hip_flexion_r	hip_adduction_r	hip_rotation_r	knee_angle_r	knee_angle_r_beta	ankle_angle_r	subtalar_angle_r	mtp_angle_r	hip_flexion_l	hip_adduction_l	hip_rotation_l	knee_angle_l	knee_angle_l_beta	ankle_angle_l	subtalar_angle_l	mtp_angle_l	lumbar_extension	lumbar_bending	lumbar_rotation	sh_tx_r	sh_ty_r	sh_tz_r	sh_plane_elev_r	sh_elev_r	sh_axial_rot_r	elbow_flex_r	pro_sup_r	sh_tx_l	sh_ty_l	sh_tz_l	sh_plane_elev_l	sh_elev_l	sh_axial_rot_l	elbow_flex_l	pro_sup_l
      4.69491530	     -2.74684489	     -0.48570091	     -3.34482262	      0.29053260	      0.93491875	     -0.13825684	      2.00017319	     -7.16470074	     -4.28220057	      1.69315472	      0.02955112	      0.71536488	     -7.31960688	     -7.49999987	      1.30756228	      0.71978923	     -3.83061418	      2.72791432	      0.04761109	      9.09501689	     -6.91993581	     -7.49999987	     -4.22855788	     -1.14816944	     -9.11204091	      0.01471734	     -0.01805600	     -0.00502605	     20.20233533	      5.31013073	     -3.96661179	     31.55010111	     72.21158200	      0.00818112	     -0.01393512	     -0.00377277	     21.59261900	      8.84244218	     -7.04940524	     31.06949094	     59.59343924
      4.71186440	     -2.70104784	     -0.33682322	     -3.40929370	      0.29053704	      0.93162428	     -0.13766929	      2.06550983	     -7.41819262	     -3.92696858	      1.74482046	      0.03045286	      0.69772111	     -7.44173276	     -7.49999987	      1.09022575	      1.01507910	     -4.06014913	      2.38240206	      0.04158076	      9.05720474	     -6.73779761	     -7.49999987	     -4.28125549	     -1.16474536	     -8.96895454	      0.01434261	     -0.01803625	     -0.00520386	     21.28817626	      5.50705220	     -4.05739453	     30.72419432	     71.75251672	      0.00814516	     -0.01385570	     -0.00375282	     22.80731871	      8.89087351	     -6.59052272	     30.06602018	     59.49020812
      4.72881360	     -2.80915813	     -0.26148913	     -3.37642403	      0.29084676	      0.93126987	     -0.13822919	      2.29801394	     -7.57857728	     -3.84815548	      1.85348436	      0.03234940	      0.80047370	     -7.48054708	     -7.49999987	      1.09198151	      1.21013780	     -3.83955938	      2.07688998	      0.03624857	      8.74624779	     -7.27381296	     -7.49999987	     -4.22339049	     -1.08820025	     -9.35145785	      0.01594335	     -0.01810321	     -0.00522977	     18.25253958	      5.02729468	     -2.05324420	     31.32811258	     71.79578446	      0.00855853	     -0.01391902	     -0.00353220	     18.78484232	      8.07894168	     -5.59375593	     30.47636199	     61.36872477
      4.74576270	     -2.87645622	     -0.22740423	     -3.49966097	      0.29002216	      0.93109401	     -0.13795493	      2.82226542	     -7.71502127	     -3.77355844	      2.58972521	      0.04519923	      1.16318825	     -7.49501366	     -7.49999987	      1.38132429	      1.28902802	     -4.28464110	      2.40680543	      0.04200668	      9.22662269	     -6.52651320	     -7.49999987	     -4.71474428	     -1.07861515	     -8.95239339	      0.01191175	     -0.01622423	     -0.00525846	     20.05353975	      5.45255078	     -3.10619450	     31.40254729	     70.63866218	      0.00786878	     -0.01091418	     -0.00442075	     20.55500933	      8.63817576	     -5.49685751	     30.31319750	     61.13153398
      4.76271190	     -2.71401145	     -0.23612077	     -3.64062184	      0.29090306	      0.93466560	     -0.13876619	      2.43877592	     -7.75247807	     -3.56591930	      2.14904461	      0.03750790	      0.83797408	     -7.69305936	     -7.49999987	      0.81112373	      1.41756136	     -4.38069897	      1.57986846	      0.02757391	      8.79434055	     -6.42314921	     -7.49999987	     -4.47730474	     -0.97561505	     -9.33695405	      0.01482450	     -0.01816464	     -0.00524703	     17.97840707	      4.78706177	     -2.33093215	     30.91700713	     72.87008930	      0.00895878	     -0.01368957	     -0.00347220	     16.81851865	      7.78923358	     -4.07445215	     30.13082053	     63.81761217
      4.77966100	     -2.75897426	     -0.23545878	     -3.84454322	      0.28996411	      0.93415742	     -0.13852562	      2.94818179	     -7.82987198	     -3.48383512	      2.77135202	      0.04836922	      1.23858481	     -7.47890751	     -7.49999987	      1.07994504	      1.45487696	     -4.80328640	      1.94168815	      0.03388885	      9.22204309	     -5.71464900	     -7.49999987	     -4.84030183	     -0.99152830	     -9.16201277	      0.01198728	     -0.01640057	     -0.00528486	     19.36285582	      5.19196349	     -2.86578666	     31.02753637	     71.51134138	      0.00793780	     -0.01079678	     -0.00437540	     18.38383733	      8.33862666	     -4.05456833	     29.73633995	     63.28233521
      4.79661020	     -2.65739879	     -0.27218176	     -4.02077103	      0.28629311	      0.93081657	     -0.14334433	      2.75995161	     -7.89058886	     -3.44453651	      2.35035450	      0.04102142	      0.83171917	     -7.78988062	     -7.49999987	      0.69772064	      1.58759865	     -4.87702692	      1.21037389	      0.02112501	      9.02204344	     -5.65206100	     -7.49999987	     -4.58000134	     -0.84057796	     -9.65625366	      0.01495579	     -0.01823320	     -0.00534190	     18.89045694	      4.91946943	     -2.97305334	     30.50986386	     71.65648281	      0.00812433	     -0.01349387	     -0.00344932	     18.13924318	      8.04772485	     -4.68223720	     29.24888456	     63.34159693
      4.81355930	     -2.75298019	     -0.23719051	     -4.29576197	      0.28184943	      0.93442357	     -0.14759380	      3.23867020	     -8.06949574	     -3.36458390	      2.58894855	      0.04518568	      0.45524794	     -8.36170404	     -7.49999987	      0.92737964	      1.78546571	     -5.34651170	      1.12932695	      0.01971047	      9.15592017	     -5.26832444	     -7.49999987	     -4.60403691	     -0.76468845	     -9.61184815	      0.01496323	     -0.01828086	     -0.00535084	     19.44233538	      5.15726984	     -4.00976782	     30.24532304	     71.25831323	      0.00902166	     -0.01361313	     -0.00349296	     19.43456080	      8.26549734	     -4.99905785	     29.01774772	     63.07569819
      4.83050850	     -2.74050040	     -0.27990575	     -4.45491297	      0.28196189	      0.93431286	     -0.14813031	      3.51709909	     -8.20049109	     -3.54882330	      2.80810215	      0.04901063	      0.20939388	     -8.74017325	     -7.49999987	      1.01656136	      1.91761229	     -5.66444873	      1.05084994	      0.01834079	      9.24448221	     -4.95601097	     -7.49999987	     -4.73560368	     -0.66554835	     -9.90672279	      0.01487864	     -0.01829803	     -0.00539203	     20.28754812	      5.34803733	     -5.13530035	     29.99529847	     69.94737306	      0.00886579	     -0.01376859	     -0.00355225	     20.99837062	      8.64365697	     -5.08150530	     28.57369222	     62.58193930
      4.84745760	     -2.69260004	     -0.33331617	     -4.69396056	      0.28629287	      0.93772037	     -0.14356222	      3.72271873	     -8.29275333	     -3.85624643	      3.15232885	      0.05501852	     -0.19946622	     -9.37658710	     -7.49999987	      0.97425053	      1.94733742	     -6.15748385	      1.00234775	      0.01749427	      9.11101790	     -4.89045520	     -7.49999987	     -4.78129794	     -0.68995340	     -9.98581434	      0.01549033	     -0.01830299	     -0.00547825	     15.40507507	      4.72967771	     -3.27808050	     30.21422707	     73.17037390	      0.00964474	     -0.01367938	     -0.00354103	     20.10603634	      8.59125612	     -4.49887975	     28.36363153	     64.19717968
      4.86440680	     -2.64663682	     -0.43075302	     -5.00943676	      0.28208526	      0.93745366	     -0.13929982	      3.93698870	     -8.32151152	     -4.44609963	      3.50779205	      0.06122252	     -0.59069502	    -10.18719262	     -7.49999987	      0.94032387	      1.86572034	     -6.75926938	      0.97182629	      0.01696157	      9.15761951	     -4.59323702	     -7.49999987	     -5.01412170	     -0.78161736	    -10.54860718	      0.01501042	     -0.01827640	     -0.00561810	     16.02324965	      4.69002786	     -4.48694522	     30.11280577	     71.53658470	      0.00716547	     -0.01324031	     -0.00359496	     21.45161347	      9.22418585	     -4.63355188	     27.81418210	     63.45541635
      4.88135590	     -2.48475445	     -0.52428189	     -5.45953695	      0.28184783	      0.93767570	     -0.13884112	      3.96043697	     -8.43112908	     -5.18715915	      3.82224323	      0.06671073	     -1.11158705	    -11.47420159	     -7.49999987	      0.73859879	      1.76378302	     -7.40622234	      0.92476689	      0.01614023	      9.09869208	     -4.18659526	     -7.49999987	     -5.37336479	     -0.90395021	    -10.96987356	      0.01474629	     -0.01824849	     -0.00570462	     15.18410632	      4.55197644	     -4.84705183	     30.39530607	     71.27487618	      0.00527371	     -0.01286285	     -0.00359771	     21.67160856	      9.69811425	     -4.82477351	     27.69142256	     63.39611961
      4.89830510	     -2.30008563	     -0.68377168	     -5.91386430	      0.28623307	      0.93793829	     -0.13500269	      3.71632588	     -8.41912356	     -6.36984153	      3.87549892	      0.06764022	     -1.69892810	    -12.47316029	     -7.49999987	      0.40963088	      1.52566768	     -7.98793978	      0.86978313	      0.01518058	      9.06123585	     -3.94200114	     -7.49999987	     -5.63750480	     -1.03457702	    -11.42111685	      0.01428907	     -0.01824622	     -0.00577261	     14.27354248	      4.38195223	     -5.12694898	     30.67284568	     71.43844763	      0.00291981	     -0.01263038	     -0.00355374	     21.66233325	     10.08176506	     -4.69463112	     27.24404979	     63.59107330
      4.91525420	     -2.20496406	     -0.76408885	     -6.40470196	      0.28609115	      0.93878050	     -0.13480293	      3.50716271	     -8.59484759	     -7.82585918	      3.80394418	      0.06639135	     -2.23773243	    -13.27966673	     -7.49999987	      0.19336318	      1.35980706	     -8.72388248	      0.82114974	      0.01433177	      9.15370377	     -3.55223038	     -7.49999987	     -5.78041930	     -1.22485883	    -11.74703455	      0.01314585	     -0.01821595	     -0.00584618	     13.23865073	      4.27160393	     -5.52236088	     31.13066523	     71.61800333	      0.00059598	     -0.01231421	     -0.00363270	     22.07083863	     10.49736690	     -4.57270082	     26.74467430	     63.70212200
      4.93220340	     -1.98114732	     -0.82851234	     -7.00473524	      0.29016158	      0.94143666	     -0.13062574	      2.98981442	     -8.80598412	     -9.54772712	      3.50552644	      0.06118298	     -3.19316368	    -14.35705817	     -7.49999987	     -0.30263991	      1.16198210	     -9.56397629	      0.74213047	      0.01295262	      9.09590152	     -3.45745122	     -7.49999987	     -5.90252757	     -1.48573081	    -11.94589184	      0.01171587	     -0.01818897	     -0.00591308	     11.18891277	      4.04516516	     -5.41143281	     31.78558776	     71.82125272	     -0.00152386	     -0.01198005	     -0.00356401	     22.00607063	     10.82529912	     -4.64738911	     26.38526594	     63.97390094
      4.94915250	     -1.81536902	     -0.81032701	     -7.61497508	      0.28968934	      0.93807314	     -0.12957405	      2.52999226	     -9.16535598	    -11.68768039	      2.97249108	      0.05187976	     -3.93969200	    -14.78340669	     -7.49999987	     -0.70954333	      1.07142771	    -10.41754046	      0.71358989	      0.01245449	      9.20692002	     -3.49003442	     -7.49999987	     -5.93977556	     -1.84747598	    -11.93752102	      0.00909274	     -0.01815529	     -0.00590143	      9.62674461	      4.02048470	     -6.08724458	     32.01354190	     72.70259153	     -0.00340138	     -0.01178855	     -0.00361867	     22.63608341	     11.19178038	     -4.94839885	     25.88589123	     63.97900285
